<?xml version="1.0" encoding="UTF-8" standalone="no"?>
<!-- Created with Inkscape (http://www.inkscape.org/) -->

<svg
   version="1.1"
   id="svg18"
   width="500"
   height="500"
   viewBox="0 0 500 500"
   sodipodi:docname="LOGO.svg"
   inkscape:export-filename="../bfb5381/SLOGO.png"
   inkscape:export-xdpi="96"
   inkscape:export-ydpi="96"
   inkscape:version="1.2.2 (732a01da63, 2022-12-09, custom)"
   xmlns:inkscape="http://www.inkscape.org/namespaces/inkscape"
   xmlns:sodipodi="http://sodipodi.sourceforge.net/DTD/sodipodi-0.dtd"
   xmlns="http://www.w3.org/2000/svg"
   xmlns:svg="http://www.w3.org/2000/svg">
  <defs
     id="defs22" />
  <sodipodi:namedview
     id="namedview20"
     pagecolor="#505050"
     bordercolor="#eeeeee"
     borderopacity="1"
     inkscape:showpageshadow="0"
     inkscape:pageopacity="0"
     inkscape:pagecheckerboard="0"
     inkscape:deskcolor="#505050"
     showgrid="false"
     inkscape:zoom="0.60826753"
     inkscape:cx="176.73144"
     inkscape:cy="319.76061"
     inkscape:window-width="1337"
     inkscape:window-height="744"
     inkscape:window-x="29"
     inkscape:window-y="0"
     inkscape:window-maximized="1"
     inkscape:current-layer="g24" />
  <g
     inkscape:groupmode="layer"
     inkscape:label="Image"
     id="g24">
    <path
       id="path319"
       style="fill:#000000"
       d="m 128.67894,131.62967 c -29.686674,0 -37.57919,0.26482 -37.25391,1.25 0.251821,0.76268 3.111409,1.46718 7.333985,1.80469 8.032515,0.64206 12.051765,2.82077 14.056645,7.61914 1.10128,2.63577 1.36328,15.0984 1.36328,64.79492 v 61.53125 h 7.90625 c 3.81658,0 5.77278,0.0383 6.72265,0.32617 0.0963,-0.0976 0.26112,-0.16601 0.49415,-0.16601 h 0.96289 1.29882 0.74219 c 0.16736,0 0.29965,0.0356 0.39649,0.0918 0.88202,-0.18463 2.17975,-0.25195 4.47656,-0.25195 h 6 v -26.5 -26.5 h 37 37 v 26.5 26.5 h 13.9707 13.97266 l 0.27734,-62.29492 c 0.26018,-58.08527 0.40158,-62.48004 2.08399,-65.04688 3.02577,-4.61642 7.43931,-6.65029 14.44531,-6.65429 4.88719,-0.003 6.25,-0.33098 6.25,-1.50391 0,-1.30631 -4.7779,-1.5 -37,-1.5 -32.2221,0 -37,0.19369 -37,1.5 0,1.17293 1.36277,1.50091 6.25,1.50391 7.00513,0.004 11.41865,2.03686 14.44531,6.65234 1.6339,2.49163 1.83475,5.99228 2.11524,37.04883 l 0.30859,34.29492 h -37.05859 -37.06055 v -33.53125 c 0,-36.48853 0.28445,-38.64296 5.53906,-42.08594 1.62445,-1.06438 5.5207,-1.99264 9.75391,-2.32617 4.32425,-0.3407 7.20779,-1.03982 7.46093,-1.80664 0.32529,-0.98518 -7.56724,-1.25 -37.2539,-1.25 z m 145.06836,72.08008 c -18.03475,-0.046 -20.56836,0.2877 -20.56836,1.34765 0,1.26608 1.24217,1.57227 6.35351,1.57227 4.9393,0 7.10636,0.50643 9.74805,2.27149 6.04431,4.03783 6.89449,7.16097 6.89649,25.33984 l 0.002,16.11133 -0.0547,0.006 v 0.78515 1.44141 0.0449 h 0.0547 v 8 8 h 5.62305 c 2.83222,0 4.11571,0.1234 4.55859,0.45313 0.5414,0.0182 1.0819,0.053 1.62305,0.0801 0.83102,0.0395 1.66242,0.0663 2.49414,0.0859 1.28662,-0.36234 3.90727,-0.61914 6.76172,-0.61914 h 6.93945 v -31 -31 h 12.31836 c 15.19332,0 21.16243,1.55774 27.16406,7.08984 5.48656,5.05734 8.13242,11.28798 9.54492,22.47852 1.33871,10.6059 0.53361,21.42327 -2.26367,30.42773 -0.13877,0.44671 -0.26293,1.17517 -0.40234,1.69727 0.003,-4e-5 0.005,10e-6 0.008,0 0.0739,-1.8e-4 0.14876,-0.002 0.22266,-0.002 0.23496,-0.001 0.46815,-0.002 0.70312,-0.002 0.34687,5e-4 0.69428,0.005 1.04102,0.0156 0.46296,0.0147 0.92589,0.0351 1.38672,0.084 0.55623,0.0629 1.10956,0.14894 1.66015,0.25 0.60912,0.10354 1.21789,0.21145 1.83203,0.28125 0.36014,0.0355 0.72174,0.0684 1.08399,0.0664 0.0637,-3.4e-4 0.1172,0.009 0.16211,0.0254 1.33252,-0.30553 3.75653,-0.41211 8.45898,-0.41211 h 9.91797 l 2.05859,-3.33203 c 5.82586,-9.42641 6.51229,-25.55307 1.55664,-36.5957 -4.91793,-10.95864 -14.17216,-17.59386 -31.04296,-22.25977 -7.46844,-2.06552 -10.38224,-2.20805 -52.16016,-2.57227 -9.93688,-0.0866 -17.67007,-0.14483 -23.68164,-0.16015 z m 1.92969,46.6875 -5.30079,0.48047 c -7.78096,0.70556 -15.41817,4.14936 -19.6875,8.875 -1.92956,2.13583 -3.50976,4.2954 -3.50976,4.79883 0,2.61654 1.4614,4.07812 4.07422,4.07812 3.11305,0 9.92578,-2.87307 9.92578,-4.18555 0,-1.11711 -0.13002,-1.0861 -5.38477,1.23828 -7.38819,3.26817 -9.1603,0.0845 -3.12304,-5.60937 4.25964,-4.01739 13.02656,-7.44336 19.04687,-7.44336 h 3.95899 v -0.0449 -1.44141 z m -123.83985,2.21094 c -0.68392,0.48489 -2.39719,5.24336 -5.16601,14.33593 -2.88,9.45753 -4.48004,13.25222 -5.68555,13.48438 -2.25405,0.43409 -9.80664,-7.02198 -9.80664,-9.68164 0,-0.48872 0.0383,-0.86369 0.18164,-1.1543 h -1.0957 -0.70508 c 0.0676,0.26843 0.0254,0.59646 -0.0898,1.03711 -0.4299,1.64392 -1.36544,2 -5.24804,2 -3.25824,0 -6.60406,0.94095 -10.78711,3.03125 -10.17048,5.08227 -8.9977,7.83415 3.70898,8.70508 4.42013,0.30297 8.03139,0.82234 8.02539,1.15625 -0.006,0.33391 -0.66038,2.74492 -1.45312,5.35742 -0.79274,2.6125 -1.04375,4.75 -0.55859,4.75 0.48514,0 1.70014,-2.5875 2.70117,-5.75 l 1.82031,-5.75 h 5 5 l 0.30078,5.75 c 0.16495,3.1625 0.67719,5.75 1.13867,5.75 0.46147,0 1.62093,-2.88711 2.57617,-6.41601 1.82663,-6.74811 2.73988,-7.54052 8.73438,-7.57032 1.5125,-0.008 2.75,-0.52032 2.75,-1.14062 0,-0.75571 -1.31971,-0.91688 -4,-0.48828 -3.04928,0.4876 -4,0.30979 -4,-0.7461 0,-0.76181 1.575,-6.57974 3.5,-12.92968 1.925,-6.34998 3.5,-12.10659 3.5,-12.79297 0,-0.78582 -0.11382,-1.09914 -0.3418,-0.9375 z m 116.58985,7.85937 c -0.16365,-0.11191 -0.42714,0.009 -0.79102,0.37305 -0.29922,0.29923 -1.36336,3.41303 -2.36523,6.91797 -1.77073,6.19448 -1.91031,6.3639 -4.95704,6.11718 -3.73328,-0.30231 -4.19482,1.27251 -0.63476,2.16602 3.01129,0.75579 3.01309,0.78351 0.5,8.08789 -2.22158,6.4571 -2.44096,7.89114 -1.07813,7.04883 0.50715,-0.31343 1.91106,-3.53956 3.11914,-7.16992 l 2.19727,-6.60157 3.54688,0.57618 c 6.18088,1.00303 14.13622,5.48598 14.86132,8.375 0.90771,3.61657 -0.6298,5.54597 -5.73242,7.19336 -4.39166,1.41782 -6.79133,1.27389 -24.91406,-1.49415 -5.16963,-0.78957 -1.67208,1.03827 5,2.61329 12.18904,2.87731 25.57138,1.12445 27.3789,-3.58594 1.91767,-4.99738 -0.65955,-9.00348 -7.68164,-11.9375 -4.43325,-1.85234 -4.14085,-3.02264 0.9961,-3.98633 4.04975,-0.75975 10.72395,-3.87566 11.77148,-5.48633 -0.56069,-0.0166 -1.12096,-0.0378 -1.68164,-0.0645 -0.48028,-0.024 -0.96081,-0.0547 -1.4414,-0.0742 -0.0471,0.13445 -0.0612,0.25587 -0.20704,0.43164 -1.29269,1.55765 -6.64374,3.24219 -13.37109,4.20703 -7.55039,1.08288 -7.93574,0.63218 -5.7207,-6.68359 1.28862,-4.25604 1.696,-6.68771 1.20508,-7.02344 z m 82.01367,8.2793 c -0.93956,3.63603 -1.85238,8.40144 -2.14063,11.88281 l -0.62109,7.5 -4.98633,2.4707 c -3.2521,1.61094 -6.73019,2.4805 -10,2.5 l -5.01367,0.0293 0.23047,-3.83398 0.23047,-3.83399 -3.99024,0.67383 -3.98828,0.67383 1.01563,-2.67383 c 1.31436,-3.45711 0.45576,-4.81888 -2.15821,-3.41992 -1.5538,0.83158 -1.93466,1.81553 -1.5957,4.125 0.39499,2.69123 -0.0555,3.34896 -4.00781,5.85547 -8.07665,5.12202 -13.61906,4.5752 -16.44141,-1.61914 -1.47546,-3.23827 -1.93363,-3.10626 -4.29492,1.23828 -2.20332,4.05385 -4.5,5.45484 -4.5,2.74414 0,-0.956 1.81981,-3.46915 4.04297,-5.58399 4.00357,-3.8085 3.46697,-5.2922 -0.82617,-2.28515 -4.6988,3.29114 -6.55315,11.43945 -2.60352,11.43945 0.81294,0 2.63456,-1.15412 4.04688,-2.56641 l 2.5664,-2.56836 2.20117,2.06836 c 3.96942,3.72908 11.60859,2.56384 19.57227,-2.98437 1.375,-0.95795 3.88108,-1.98515 5.56836,-2.2832 2.91462,-0.51484 3.04599,-0.39634 2.63867,2.3789 -0.36279,2.47186 0.0107,3.08937 2.43164,4.01758 3.62067,1.38821 12.20802,-0.18256 17.24805,-3.15625 2.6641,-1.57189 3.65826,-1.77328 3.98047,-0.80664 0.23619,0.70855 1.52185,2.37932 2.85742,3.71484 2.05111,2.05112 3.11887,2.35067 6.87109,1.92774 2.44325,-0.27539 6.21807,-1.67555 8.39063,-3.11328 3.8065,-2.51905 3.98792,-2.5448 4.97461,-0.70118 2.71709,5.07697 14.06864,5.10642 24.06054,0.0625 3.60883,-1.8217 5.99518,-2.57486 5.72071,-1.80664 -0.71384,1.99806 1.10371,4.81641 3.10547,4.81641 0.9769,0 2.76113,-0.91763 3.96484,-2.03906 3.09497,-2.8834 2.74879,-1.78149 -1.8125,5.78125 -2.52729,4.19025 -4,7.852 -4,9.94531 0,2.57401 0.4188,3.3125 1.87695,3.3125 2.05691,0 5.32362,-6.48529 6.98047,-13.85937 0.51655,-2.29901 1.7011,-5.34077 2.63086,-6.75977 1.53991,-2.35021 2.09175,-2.51947 6.20703,-1.90234 4.61832,0.69256 10.30469,-0.80207 10.30469,-2.70703 0,-0.55718 -0.76076,-0.65939 -1.75,-0.23633 -3.41054,1.45858 -7.04879,1.64263 -9.24219,0.46875 -1.60707,-0.86004 -2.52426,-0.88593 -3.31445,-0.0957 -1.57637,1.57637 -3.69336,1.34207 -3.69336,-0.4082 0,-0.825 -0.45,-1.5 -1,-1.5 -0.55,0 -1,0.61444 -1,1.36523 0,2.29912 -4.02542,6.63477 -6.16016,6.63477 -1.79529,0 -1.9424,-0.43317 -1.34375,-3.97656 l 0.67188,-3.97852 -5.79297,3.48828 c -9.65152,5.81187 -19.00343,7.22009 -23.51367,3.54102 -1.85388,-1.51222 -2.03926,-2.01946 -0.86133,-2.36328 6.83531,-1.99511 7.51973,-2.38659 7.82031,-4.48438 0.5308,-3.70461 -2.49203,-3.83782 -7.13476,-0.3125 -9.18231,6.97233 -13.07334,9.08594 -16.72657,9.08594 -3.91743,0 -6.96141,-2.38388 -7.20703,-5.64453 -0.0774,-1.02787 1.29772,-5.32253 3.05469,-9.54297 1.75698,-4.22044 3.19336,-8.37896 3.19336,-9.24219 0,-0.32717 0.0987,-0.58867 0.37109,-0.79687 -0.0664,-0.006 -0.13294,-0.0111 -0.19922,-0.0176 -0.62436,-0.0705 -1.24212,-0.17991 -1.86132,-0.28516 -0.26288,-0.0482 -0.52671,-0.0939 -0.79102,-0.13476 0.39636,0.43021 0.38761,1.37161 0.01,3.41406 -0.38154,2.0625 -1.51903,5.55 -2.52735,7.75 l -1.83203,4 -0.0801,-4 c -0.10252,-5.21157 1.38869,-10.43888 3.08203,-11.31836 -0.28313,-0.019 -0.56594,-0.032 -0.84961,-0.041 -0.34232,-0.01 -0.68488,-0.0132 -1.02734,-0.0137 -0.2343,0 -0.46882,0.001 -0.70312,0.002 -0.074,2.3e-4 -0.14671,-1.8e-4 -0.22071,0 -0.0406,10e-5 -0.0764,-0.005 -0.10937,-0.0117 z m -111.26172,0.88281 c -1.1,0 -2.95139,0.95334 -4.11524,2.11719 -1.82527,1.82531 -2.02372,2.82151 -1.4375,7.25 0.37379,2.82365 0.76463,7.60781 0.86719,10.63281 l 0.18555,5.5 3.67187,-0.2832 c 2.01871,-0.15584 3.95735,0.18166 4.3086,0.75 1.07134,1.73354 1.69279,1.15387 1.02343,-0.95508 -0.36195,-1.14054 0.035,-2.94253 0.93165,-4.22266 1.98665,-2.83634 2.01358,-6.40188 0.0527,-7.15429 -1.18739,-0.45565 -1.37861,-0.0458 -0.88867,1.90625 0.58997,2.3506 -0.89532,5.45898 -2.60742,5.45898 -0.4194,0 -1.48895,-1.10762 -2.37696,-2.46289 -1.5027,-2.29341 -1.4743,-2.81567 0.38672,-7.53711 2.66943,-6.77234 2.6679,-11 -0.002,-11 z m 0.27148,1.22266 c 0.66574,0.29153 0.3552,2.2868 -0.875,6.18945 -0.96879,3.07333 -2.12856,5.58789 -2.57812,5.58789 -0.44956,0 -0.81836,-1.954 -0.81836,-4.34375 0,-3.07945 0.58405,-4.87539 2.00586,-6.16211 1.11482,-1.0089 1.86618,-1.4464 2.26562,-1.27148 z m -115.10351,3.77734 c 3.71418,0 3.84342,0.11058 3.21289,2.75 -0.36131,1.5125 -1.09913,3.3125 -1.64063,4 -1.12932,1.43378 -14.43474,1.73009 -16.58203,0.36914 -2.989,-1.89443 8.02604,-7.11914 15.00977,-7.11914 z m 6.1582,1 c 1.71646,0 5.90132,4.44047 5.01758,5.32422 -0.3717,0.37169 -2.22501,0.67578 -4.11719,0.67578 -2.72628,0 -3.31304,-0.32854 -2.83203,-1.58203 0.33385,-0.86998 0.60547,-2.21998 0.60547,-3 0,-0.78001 0.59704,-1.41797 1.32617,-1.41797 z m 86.16602,4.4375 c -0.94217,0.2566 -2.94824,1.58769 -5.31836,3.80469 -5.72311,5.35326 -9.29472,7.35239 -14.70703,8.23047 -2.18099,0.35384 -4.93261,0.83859 -6.11329,1.07812 -1.86481,0.37833 -2.12744,0.0107 -2,-2.80664 0.12217,-2.70085 -0.24892,-3.29942 -2.21875,-3.57812 -1.30089,-0.18407 -2.85264,0.15343 -3.44921,0.75 -1.52832,1.52828 -2.7239,1.34803 -2.08594,-0.31446 0.29523,-0.76937 0.0562,-1.69549 -0.53125,-2.05859 -0.58749,-0.36309 -1.06836,-0.20186 -1.06836,0.35742 0,2.16517 -8.60461,6.09961 -13.33789,6.09961 -4.24993,0 -4.66211,-0.21053 -4.66211,-2.39062 0,-3.53162 -4.79745,-4.57646 -7.22852,-1.57422 -2.05897,2.54273 -2.27108,5.06485 -0.57031,6.76562 1.45559,1.45559 5.44454,1.58149 6.29883,0.19922 0.33992,-0.55 2.73051,-1.00938 5.31055,-1.02148 2.58,-0.0121 6.65463,-0.91291 9.05468,-2.00196 l 4.36328,-1.98047 -0.54101,2.75196 c -0.29759,1.51363 -1.81079,6.23984 -3.36328,10.50195 -2.05342,5.63732 -3.30115,7.74949 -4.57422,7.75 -1.3332,5.3e-4 -1.75,0.8336 -1.75,3.5 0,2.99733 0.32314,3.48407 2.25,3.38477 1.69317,-0.0873 1.81691,-0.23007 0.5,-0.57422 -2.13786,-0.55868 -2.32741,-2.31055 -0.25,-2.31055 2.99763,0 5.34049,-3.89186 7.01758,-11.66211 1.75085,-8.112 5.70509,-15.76302 7.78906,-15.06836 2.02597,0.67532 1.31701,4.17737 -1.05664,5.21875 -4.06095,1.78163 -2.36066,2.62357 4,1.98047 9.31516,-0.94181 15.9729,-3.07015 20.25195,-6.4707 l 3.82617,-3.03906 2.33594,2.19531 c 1.28506,1.20725 2.33594,2.79236 2.33594,3.52148 0,1.58487 -4.31441,1.76085 -7.06445,0.28906 -2.92908,-1.56756 -2.42952,0.66488 0.59179,2.64454 1.85643,1.21634 3.71234,1.49385 7.00196,1.04296 6.22312,-0.85294 16.90684,-6.55017 15.29882,-8.1582 -0.3684,-0.3684 -1.9423,0.25617 -3.49804,1.38867 -1.55574,1.13249 -4.51758,2.75326 -6.58008,3.60157 -3.7277,1.53318 -3.75,1.52879 -3.75,-0.88672 0,-1.49571 -1.052,-3.19688 -2.73633,-4.42383 -2.70384,-1.96961 -2.71422,-2.01872 -0.83984,-4.08984 1.88733,-2.08552 2.01052,-2.90308 1.06836,-2.64649 z m -75.8125,2.85547 c 0.22716,0.10876 0.32031,0.59914 0.32031,1.50781 0,2.41451 -0.51835,2.78696 -1.55274,1.11328 -0.36954,-0.59793 -0.17066,-1.5891 0.44141,-2.20117 0.20429,-0.20429 0.37494,-0.33975 0.51758,-0.40234 0.10698,-0.0469 0.19771,-0.0538 0.27344,-0.0176 z m 238.43164,1.70703 c 1.60325,0 0.93107,1.90735 -1.04493,2.96484 -3.27939,1.75509 -4.72467,1.101 -2.20507,-0.99804 1.29844,-1.0817 2.76094,-1.9668 3.25,-1.9668 z m -221.83789,2.7832 c 0.26378,0.20197 0.31863,1.05766 0.40625,2.75391 0.12665,2.45188 -0.2475,3.46289 -1.28125,3.46289 -2.37476,0 -2.84296,-3.00048 -0.78711,-5.04687 0.9251,-0.92086 1.39832,-1.3719 1.66211,-1.16993 z m 79.55078,1.61719 c 0.29111,0.0924 0.60139,0.52714 1.0332,1.33399 0.58977,1.10195 0.78873,2.28744 0.44141,2.63476 -0.34732,0.34731 -1.23151,0.63086 -1.96485,0.63086 -1.51891,0 -1.72075,-1.84002 -0.42578,-3.88477 0.35325,-0.55774 0.62491,-0.8072 0.91602,-0.71484 z m 172.77929,9.86914 c 0.25499,0.255 -0.27083,2.66185 -1.16796,5.34766 -1.92605,5.76579 -3.43555,7.7616 -3.43555,4.54297 0,-2.41237 3.83738,-10.6568 4.60351,-9.89063 z m -133.49414,5.73047 -0.30468,29.92969 c -0.28962,28.43914 -0.40704,30.06922 -2.375,32.75 -3.06459,4.17449 -8.0438,6.31831 -14.67969,6.32031 -4.55717,0.001 -5.75,0.32629 -5.75,1.57031 0,1.40937 4.82477,1.53033 47.25,1.19141 44.45227,-0.3551 47.70359,-0.50171 54.89453,-2.5 25.64486,-7.1264 36.92989,-21.94243 35.63086,-46.77734 -0.39932,-7.63424 -1.03039,-10.43065 -3.57813,-15.875 l -3.09179,-6.60938 h -13.40625 -13.40625 l 1.49414,5.25 c 2.00237,7.03603 2.21887,32.22007 0.34179,39.75 -1.97106,7.90711 -6.03256,14.91546 -10.54101,18.18359 -6.44814,4.67423 -12.20073,5.81641 -29.26953,5.81641 h -15.31836 v -34.5 -34.5 h -13.94531 z m -91.86328,5.6543 -0.77148,2.42383 c -0.73172,2.30173 -0.80812,2.32186 -1.55078,0.42187 -0.61527,-1.5741 -0.79822,-1.64499 -0.85352,-0.33203 -0.0387,0.91752 0.23734,2.4715 0.61328,3.45117 0.57277,1.49262 0.83881,1.31755 1.63672,-1.07617 l 0.95117,-2.85742 1.21094,2.9082 1.21094,2.90625 0.74804,-3.32031 c 0.41208,-1.82682 0.48164,-3.59063 0.1543,-3.91797 -0.32734,-0.32734 -0.61136,0.49311 -0.63086,1.82227 l -0.0352,2.41601 -1.3418,-2.42187 z m -41.36133,0.3457 c -1.48577,0 -1.88476,0.73888 -1.88476,3.5 0,2.79786 0.38984,3.5 1.9414,3.5 2.50542,0 2.99577,-0.88598 2.35157,-4.25586 -0.35084,-1.83532 -1.14862,-2.74414 -2.40821,-2.74414 z m 13.05664,0 c -1.57893,0 -1.93828,0.69941 -1.92578,3.75 0.0108,2.63902 0.2845,3.32481 0.92383,2.31445 0.78944,-1.2476 1.14743,-1.2476 2.73438,0 1.62802,1.27988 1.69274,1.26627 0.59961,-0.13672 -0.88433,-1.13497 -0.92215,-1.87863 -0.13672,-2.66406 1.44761,-1.44761 0.22629,-3.26367 -2.19532,-3.26367 z m 56.0586,0 c -1.65779,0 -1.98542,0.64072 -1.91992,3.75 0.0434,2.0625 0.31259,3.16941 0.59765,2.45899 0.34119,-0.85032 0.9111,-0.96599 1.66993,-0.3379 0.8258,0.6836 1.22367,-0.0143 1.40234,-2.45898 0.20673,-2.82862 -0.0927,-3.41211 -1.75,-3.41211 z m 37,0 c -2.69744,0 -2.53874,2.63735 0.25,4.1543 l 2.18945,1.1914 c -0.12355,-0.48647 -0.56145,-1.02881 -1.40039,-1.55273 -2.35836,-1.47282 -2.75984,-3.28384 -0.53906,-2.43164 0.825,0.31658 1.5,0.14015 1.5,-0.39258 0,-0.53274 -0.9,-0.96875 -2,-0.96875 z m 2.43945,5.3457 c 0.004,0.0146 0.0125,0.0305 0.0156,0.0449 l 0.0449,-0.0117 z m 0.0156,0.0449 -2.45508,0.69921 c -2.30079,0.6549 -2.32495,0.71885 -0.3086,0.81055 1.97026,0.0896 2.95826,-0.59994 2.76368,-1.50976 z m -52.20508,-5.27344 c -1.92686,-0.0993 -2.25,0.38548 -2.25,3.38281 0,2.99733 0.32314,3.48407 2.25,3.38477 1.69317,-0.0873 1.81691,-0.23007 0.5,-0.57422 -0.9625,-0.25152 -1.75,-0.87315 -1.75,-1.38282 0,-0.50964 0.7875,-0.97916 1.75,-1.04296 1.66667,-0.11048 1.66667,-0.13867 0,-0.57422 -0.9625,-0.25152 -1.75,-0.84121 -1.75,-1.31055 0,-0.46934 0.7875,-1.05903 1.75,-1.31055 1.31691,-0.34415 1.19317,-0.48496 -0.5,-0.57226 z m 36,0 c -1.92686,-0.0993 -2.25,0.38548 -2.25,3.38281 0,2.99733 0.32314,3.48407 2.25,3.38477 1.69317,-0.0873 1.81691,-0.23007 0.5,-0.57422 -0.9625,-0.25152 -1.75,-0.87315 -1.75,-1.38282 0,-0.50964 0.7875,-0.97916 1.75,-1.04296 1.66667,-0.11048 1.66667,-0.13867 0,-0.57422 -0.9625,-0.25152 -1.75,-0.84121 -1.75,-1.31055 0,-0.46934 0.7875,-1.05903 1.75,-1.31055 1.31691,-0.34415 1.19317,-0.48496 -0.5,-0.57226 z m -92.25,0.88281 c 0.55,0 1,0.45 1,1 0,0.55 -0.45,1 -1,1 -0.55,0 -1,-0.45 -1,-1 0,-0.55 0.45,-1 1,-1 z m 13.5,0 c 0.825,0 1.5,0.45 1.5,1 0,0.55 -0.675,1 -1.5,1 -0.825,0 -1.5,-0.45 -1.5,-1 0,-0.55 0.675,-1 1.5,-1 z m 14,0 c 0.825,0 1.5,0.45 1.5,1 0,0.55 -0.675,1 -1.5,1 -0.825,0 -1.5,-0.45 -1.5,-1 0,-0.55 0.675,-1 1.5,-1 z m 41.5,0 c 0.55,0 1,0.45 1,1 0,0.55 -0.45,1 -1,1 -0.55,0 -1,-0.45 -1,-1 0,-0.55 0.45,-1 1,-1 z m 11.53711,0.19922 c -0.15903,-0.20164 -0.27683,0.65078 -0.28516,2.30078 -0.0111,2.19996 0.18526,3.21781 0.43555,2.26172 0.25031,-0.95609 0.25881,-2.75609 0.0195,-4 -0.0598,-0.31098 -0.11691,-0.49529 -0.16992,-0.5625 z m -80.03711,2.80078 c 0.825,0 1.5,0.45 1.5,1 0,0.55 -0.675,1 -1.5,1 -0.825,0 -1.5,-0.45 -1.5,-1 0,-0.55 0.675,-1 1.5,-1 z" />
    <path
       style="fill:#916f6f;stroke:#ffffff;stroke-width:1.99596;stroke-linecap:square;stroke-linejoin:bevel;paint-order:stroke markers fill"
       d="m 254.18595,375.56505 c -1.41895,-0.96235 -0.0643,-1.40525 5.42643,-1.77414 6.23138,-0.41866 9.63717,-1.679 12.76062,-4.72218 1.13243,-1.10332 2.3237,-2.87658 2.64727,-3.94057 0.52324,-1.72055 1.44562,-33.39572 1.55034,-53.23941 l 0.0368,-6.97746 h 13.6813 13.68131 v 34.47688 34.47688 h 12.33473 c 22.22434,0 28.73524,-1.53298 35.23341,-8.29563 2.91616,-3.03486 6.37479,-9.77152 7.74179,-15.0793 2.15012,-8.34857 1.9552,-34.07412 -0.31487,-41.55649 -0.4429,-1.45982 -0.80793,-2.96204 -0.81119,-3.33827 -0.005,-0.52836 2.95254,-0.68292 12.99132,-0.67903 l 12.99723,0.005 2.04435,4.50979 c 3.12703,6.89816 3.65271,8.79577 4.26113,15.38183 1.59366,17.25118 -3.45225,30.74428 -14.63713,39.14071 -6.68834,5.0209 -17.8503,9.57814 -26.9661,11.00982 -5.37991,0.84494 -93.47444,1.40475 -94.65876,0.60153 z"
       id="path1197" />
    <path
       style="fill:#916f6f;stroke:#ffffff;stroke-width:1.99596;stroke-linecap:square;stroke-linejoin:bevel;paint-order:stroke markers fill"
       d="m 281.12226,268.42316 -4.51483,-0.22202 -0.009,-19.54213 c -0.0129,-28.30955 -0.62337,-33.6836 -4.26133,-37.51346 -3.20019,-3.36899 -5.79995,-4.37264 -12.19018,-4.70606 -5.90842,-0.30828 -7.45875,-0.74955 -5.96107,-1.69671 1.04859,-0.66315 65.91141,-0.65345 79.3357,0.0119 7.93759,0.39339 11.29202,0.80682 15.53154,1.91424 19.07788,4.9834 29.43829,13.71834 33.24572,28.02971 0.84918,3.19185 1.1357,5.92561 1.1357,10.83585 0,7.83067 -1.22635,13.20059 -4.32471,18.93699 l -2.03841,3.77397 -8.23043,0.12969 c -7.94802,0.12523 -17.37912,-0.0714 -17.67974,-0.36859 -0.0803,-0.0794 0.34474,-2.21293 0.94457,-4.74119 3.52473,-14.85669 1.94408,-34.60058 -3.51592,-43.91737 -1.77865,-3.03503 -7.04094,-8.07593 -10.01395,-9.59265 -4.77423,-2.43563 -7.97328,-2.91006 -21.60875,-3.20468 l -12.99723,-0.28083 v 30.98781 30.98781 l -3.1467,0.003 c -1.73069,0.002 -5.8556,0.0913 -9.16648,0.19989 -3.31087,0.10857 -8.05144,0.0975 -10.5346,-0.0246 z"
       id="path1199" />
    <path
       style="fill:#916f6f;stroke:#ffffff;stroke-width:1.99596;stroke-linecap:square;stroke-linejoin:bevel;paint-order:stroke markers fill"
       d="m 121.32466,268.41768 -6.70384,-0.20597 -0.0395,-44.72101 c -0.0488,-55.1981 -0.54611,-78.95139 -1.70985,-81.66908 -1.7867,-4.1725 -6.27362,-6.56194 -13.847302,-7.37417 -1.805932,-0.19367 -4.268567,-0.63043 -5.472521,-0.97056 l -2.189008,-0.61843 3.009886,-0.38529 c 3.976434,-0.50902 65.160025,-0.51094 68.680145,-0.002 l 2.73626,0.39549 -2.18901,0.61441 c -1.20396,0.33793 -3.66659,0.77288 -5.47252,0.96655 -4.1999,0.45041 -8.84262,1.73585 -10.50588,2.90879 -2.06504,1.45627 -3.35197,4.51905 -3.97006,9.44841 -0.33885,2.70239 -0.5735,17.1744 -0.5735,35.37101 v 30.79728 h 37.21315 37.21314 l -0.0357,-15.45987 c -0.0536,-23.18076 -0.88346,-52.42334 -1.54822,-54.55291 -0.71415,-2.28778 -3.45889,-5.24133 -6.16914,-6.63847 -2.03327,-1.04816 -7.23096,-2.01876 -12.22166,-2.28222 -3.40506,-0.17976 -3.56406,-1.11463 -0.27363,-1.60883 3.21162,-0.48237 64.64764,-0.48237 67.85926,0 3.29043,0.4942 3.13143,1.42907 -0.27363,1.60883 -4.9907,0.26346 -10.18839,1.23406 -12.22166,2.28222 -2.70695,1.39543 -5.4532,4.34832 -6.17395,6.63847 -0.65045,2.06677 -1.47375,55.07993 -1.53988,99.15396 l -0.0392,26.13128 h -13.6813 -13.6813 v -26.54189 -26.54173 h -37.21313 -37.21315 v 26.54173 26.54172 h -3.47457 c -1.91101,0 -5.29713,0.0851 -7.52471,0.18913 -2.22758,0.10401 -7.06687,0.0964 -10.75398,-0.0169 z"
       id="path1201" />
  </g>
</svg>
