<?xml version="1.0" encoding="UTF-8" standalone="no"?>
<!-- Created with Inkscape (http://www.inkscape.org/) -->

<svg
   version="1.1"
   id="svg18"
   width="325.13837"
   height="66.897629"
   viewBox="0 0 325.13837 66.897629"
   sodipodi:docname="typefontLOGO.svg"
   inkscape:version="1.2.2 (732a01da63, 2022-12-09, custom)"
   xmlns:inkscape="http://www.inkscape.org/namespaces/inkscape"
   xmlns:sodipodi="http://sodipodi.sourceforge.net/DTD/sodipodi-0.dtd"
   xmlns="http://www.w3.org/2000/svg"
   xmlns:svg="http://www.w3.org/2000/svg">
  <defs
     id="defs22" />
  <sodipodi:namedview
     id="namedview20"
     pagecolor="#505050"
     bordercolor="#eeeeee"
     borderopacity="1"
     inkscape:showpageshadow="0"
     inkscape:pageopacity="0"
     inkscape:pagecheckerboard="0"
     inkscape:deskcolor="#505050"
     showgrid="false"
     inkscape:zoom="2.3374618"
     inkscape:cx="246.63504"
     inkscape:cy="292.41119"
     inkscape:window-width="1337"
     inkscape:window-height="744"
     inkscape:window-x="29"
     inkscape:window-y="0"
     inkscape:window-maximized="1"
     inkscape:current-layer="g24" />
  <g
     inkscape:groupmode="layer"
     inkscape:label="Image"
     id="g24"
     transform="translate(-94.505821,-235.10237)">
    <path
       style="fill:#ffffff"
       d="m 129,298.43045 c 0,-3.12021 0.28045,-3.52933 2.22788,-3.25 1.71354,0.24578 2.2879,1.06986 2.48786,3.56955 0.22922,2.86544 -0.0344,3.25 -2.22788,3.25 C 129.30202,302 129,301.56666 129,298.43045 Z M 133,300 c 0,-0.55 -0.675,-1 -1.5,-1 -0.825,0 -1.5,0.45 -1.5,1 0,0.55 0.675,1 1.5,1 0.825,0 1.5,-0.45 1.5,-1 z m -1,-3 c 0,-0.55 -0.47656,-1 -1.05902,-1 -0.58246,0 -0.7809,0.45 -0.44098,1 0.33992,0.55 0.81648,1 1.05902,1 0.24254,0 0.44098,-0.45 0.44098,-1 z m 10.01531,1.68045 c -0.0136,-3.3926 0.2362,-3.78383 2.23469,-3.5 1.79751,0.25529 2.25682,0.97314 2.2839,3.56955 0.0342,3.27631 -0.93637,4.31186 -1.87444,2 -0.38169,-0.94068 -0.76971,-0.87881 -1.56802,0.25 -0.82508,1.16667 -1.06422,0.65121 -1.07613,-2.31955 z M 146,297 c 0,-0.55 -0.675,-1 -1.5,-1 -0.825,0 -1.5,0.45 -1.5,1 0,0.55 0.675,1 1.5,1 0.825,0 1.5,-0.45 1.5,-1 z m 9.18664,1.75 c 0.24017,-2.49095 0.83886,-3.32463 2.56336,-3.56955 1.2375,-0.17575 2.25,-0.999 2.25,-1.82945 0,-0.83044 1.09904,-4.28664 2.44231,-7.68044 1.34326,-3.39381 2.73524,-7.38095 3.09329,-8.86032 l 0.65098,-2.68976 -3.80473,1.93976 c -2.28916,1.16708 -5.8317,1.93976 -8.89329,1.93976 -2.79871,0 -5.57666,0.4881 -6.17322,1.08466 -1.52576,1.52576 -5.40116,0.7503 -6.71321,-1.34329 -1.76711,-2.81971 1.22657,-7.2426 4.89821,-7.23667 2.27955,0.004 3.03871,0.54646 3.49668,2.5 1.04833,4.47186 9.79422,3.87351 15.40638,-1.05402 3.81632,-3.35078 4.5966,-3.59106 4.5966,-1.4155 0,1.22531 0.4037,1.31913 2,0.46482 2.81181,-1.50484 6,0.37364 6,3.53518 0,2.03675 0.4895,2.46482 2.8185,2.46482 6.02783,0 12.68267,-2.91123 18.49315,-8.09003 5.75889,-5.13282 7.98241,-5.95495 5.54354,-2.0497 -1.10773,1.77375 -0.98033,2.37762 0.93071,4.41183 1.21776,1.29624 2.2141,3.16408 2.2141,4.15076 0,2.37876 3.99719,1.45307 9.5,-2.20007 2.2,-1.46051 4.6236,-2.52436 5.38578,-2.36411 0.97734,0.20548 1.16769,-0.24653 0.64585,-1.53366 -3.33207,-8.21851 -1.99656,-14.18566 3.49637,-15.62209 3.68515,-0.96369 4.34572,1.73413 2.07267,8.465 -2.47414,7.32633 -2.56692,8.81218 -0.70888,11.35319 2.07926,2.84356 5.00312,0.20342 4.20334,-3.79546 -0.40834,-2.04169 -0.21408,-2.76713 0.6638,-2.4789 1.97029,0.6469 2.08562,5.71503 0.17801,7.82292 -1.41211,1.56037 -1.48807,2.16379 -0.43245,3.43573 1.6362,1.9715 0.51878,3.17376 -1.43936,1.54864 -0.93738,-0.77796 -2.64827,-0.97506 -4.64909,-0.53561 -3.78015,0.83026 -5.04812,-0.60802 -4.21378,-4.77976 l 0.5711,-2.8555 -4.38668,2.91134 c -5.3972,3.582 -10.06522,5.21537 -14.7859,5.17368 C 199.36742,279.9352 196,278.11965 196,276.13976 c 0,-1.40614 1.65998,-1.49894 2.5,-0.13976 0.82434,1.3338 5.20884,1.28012 6.04575,-0.074 0.36508,-0.59071 -0.32977,-2.13162 -1.54412,-3.42424 l -2.20791,-2.35021 -4.81521,3.45939 c -3.23125,2.32142 -7.06247,3.93553 -11.64686,4.90687 -11.34851,2.40449 -18.31465,1.618 -11.83165,-1.33586 2.87513,-1.30999 3.36657,-4.18195 0.71561,-4.18195 -2.66199,0 -5.49563,5.51622 -7.44855,14.5 -1.72109,7.91733 -4.01956,11.5 -7.37784,11.5 -1.9925,0 -1.71647,1.76783 0.36078,2.31067 1.05148,0.27479 0.62704,0.50363 -1.06336,0.57333 -2.59084,0.10683 -2.78857,-0.14105 -2.5,-3.134 z M 160,297 c 0,-0.55 -0.675,-1 -1.5,-1 -0.825,0 -1.5,0.45 -1.5,1 0,0.55 0.675,1 1.5,1 0.825,0 1.5,-0.45 1.5,-1 z m -14.62162,-21.75 c -0.88214,-3.67709 -1.03388,-3.76222 -2.3436,-1.31498 -1.27133,2.3755 -0.62991,4.06498 1.54329,4.06498 1.08603,0 1.29104,-0.70444 0.80031,-2.75 z m 80.97393,1.98897 c 0.25869,-0.41856 -0.16476,-1.62957 -0.94099,-2.69113 -1.34361,-1.8375 -1.41132,-1.80099 -1.41132,0.76103 0,2.53418 1.31309,3.61159 2.35231,1.9301 z M 226.2375,261.25 c 1.62362,-5.04441 0.57577,-7.0827 -1.9003,-3.69647 -1.47295,2.01437 -1.84066,8.44647 -0.48288,8.44647 0.46988,0 1.54231,-2.1375 2.38318,-4.75 z M 169.66123,301 c -1.1841,-3.67426 -1.40411,-6 -0.56761,-6 0.49851,0 0.92233,1.0125 0.94182,2.25 l 0.0354,2.25 1.34229,-2.42292 1.3423,-2.42292 0.7987,2.42292 0.7987,2.42292 0.72389,-2.5 0.72389,-2.5 0.0844,2.5 c 0.0464,1.375 -0.30955,3.12196 -0.791,3.88213 -0.67972,1.07323 -1.03887,0.86696 -1.60696,-0.92292 l -0.73159,-2.30505 -1.30542,2.42292 c -0.98642,1.83085 -1.42354,2.05637 -1.78881,0.92292 z m 14.52541,-2.25 c 0.25602,-2.65525 0.77086,-3.28379 2.81336,-3.43464 1.44393,-0.10665 1.76075,0.0299 0.75,0.32332 -0.9625,0.27938 -1.75,0.89198 -1.75,1.36132 0,0.46934 0.7875,1.05915 1.75,1.31067 1.66667,0.43555 1.66667,0.46285 0,0.57333 -0.9625,0.0638 -1.75,0.533 -1.75,1.04268 0,0.50967 0.7875,1.13247 1.75,1.38399 1.05148,0.27479 0.62704,0.50363 -1.06336,0.57333 -2.59084,0.10683 -2.78857,-0.14105 -2.5,-3.134 z m 13.82867,0 c -0.0125,-3.05059 0.3467,-3.75 1.92567,-3.75 2.42161,0 3.64329,1.81573 2.19568,3.26334 -0.78543,0.78543 -0.78276,1.45816 0.01,2.41287 0.75779,0.91308 0.76872,1.32379 0.0352,1.32379 -0.58488,0 -1.37123,-0.49804 -1.74744,-1.10676 -0.47683,-0.77153 -0.94441,-0.69581 -1.54371,0.25 -0.56895,0.89792 -0.86486,0.0885 -0.875,-2.39324 z M 201.5,297 c -0.33992,-0.55 -1.04148,-1 -1.55902,-1 -0.51754,0 -0.94098,0.45 -0.94098,1 0,0.55 0.70156,1 1.55902,1 0.85746,0 1.2809,-0.45 0.94098,-1 z m 9.75218,1.5 c 0.0111,-2.2 0.21589,-2.98225 0.45508,-1.73834 0.23919,1.24391 0.23011,3.04391 -0.0202,4 -0.25029,0.95609 -0.446,-0.0617 -0.4349,-2.26166 z m 9.74782,0 c 0,-2.99733 0.32314,-3.48334 2.25,-3.384 1.69317,0.0873 1.81691,0.22918 0.5,0.57333 -0.9625,0.25152 -1.75,0.84133 -1.75,1.31067 0,0.46934 0.7875,1.05915 1.75,1.31067 1.66667,0.43555 1.66667,0.46285 0,0.57333 -0.9625,0.0638 -1.75,0.533 -1.75,1.04268 0,0.50967 0.7875,1.13247 1.75,1.38399 1.31691,0.34415 1.19317,0.48604 -0.5,0.57333 -1.92686,0.0993 -2.25,-0.38667 -2.25,-3.384 z m 13.46913,2.45005 c -0.50231,-0.81275 -0.0779,-0.96064 1.40564,-0.4898 1.16888,0.37099 2.12523,0.24669 2.12523,-0.27623 0,-0.52292 -0.94741,-1.19851 -2.10536,-1.50132 -1.15794,-0.30281 -1.91019,-1.14279 -1.67167,-1.86663 0.52083,-1.58052 4.77703,-2.39754 4.77703,-0.91701 0,0.571 -0.675,0.77915 -1.5,0.46257 -0.825,-0.31659 -1.5,-0.12995 -1.5,0.41475 0,0.5447 0.94741,1.23811 2.10536,1.54092 1.15794,0.30281 1.91019,1.14279 1.67167,1.86663 -0.5653,1.71547 -4.38081,2.26619 -5.3079,0.76612 z m 156.87573,-4.49374 c -1.04669,-2.72764 0.45531,-8.36993 3.38661,-12.72187 4.53719,-6.7361 4.55826,-6.8077 1.48386,-5.04324 -3.33265,1.91268 -6.16886,1.20251 -6.93759,-1.73714 -0.29282,-1.11971 -0.81259,-1.88197 -1.15506,-1.69391 -7.72777,4.2436 -11.11058,5.23985 -17.79212,5.23985 -6.0782,0 -7.53735,-0.34564 -9.58668,-2.27088 l -2.41724,-2.27089 -4.61726,2.58063 c -6.48637,3.62531 -12.32326,3.18335 -15.23594,-1.15362 l -2.09185,-3.11476 -4.7625,2.42036 c -9.55577,4.85638 -19.24499,4.02707 -18.42252,-1.5768 0.36853,-2.51092 0.17564,-2.6763 -2.64955,-2.2716 -1.67586,0.24005 -4.84702,1.65866 -7.04702,3.15245 -7.87869,5.34961 -14.3594,6.02793 -18.1001,1.8945 -1.71873,-1.89917 -1.7919,-1.88801 -4.47473,0.6823 -3.40802,3.2651 -6.31189,2.89445 -6.74455,-0.86086 C 273.79842,274.39346 279.53913,268 282.9,268 c 2.87554,0 2.63585,0.67154 -0.89058,2.49513 -3.78673,1.9582 -6.71292,6.20137 -5.271,7.64329 0.71431,0.71431 1.74859,-0.23263 3.3328,-3.05134 2.62396,-4.66871 3.61728,-5.03659 4.84936,-1.79598 0.47909,1.2601 1.59658,2.89322 2.48332,3.62914 2.38525,1.97959 9.5007,0.83304 14.22258,-2.29175 3.3889,-2.24267 3.95776,-3.10115 3.61273,-5.45203 -0.2517,-1.71491 0.18449,-3.28321 1.13183,-4.06943 2.32894,-1.93285 3.84879,-0.38438 3.07603,3.13395 -0.58162,2.64809 -0.42442,2.98147 1.19146,2.52671 4.90864,-1.38145 4.86924,-1.40202 4.64784,2.42647 -0.16633,2.87632 0.21141,3.82905 1.70629,4.30351 2.79139,0.88595 8.82955,-0.43081 14.11287,-3.07766 l 4.60552,-2.30728 0.52216,-8.36948 c 0.72648,-11.64472 4.32061,-18.01829 8.29886,-14.71664 1.92776,1.5999 1.16217,6.01995 -2.68011,15.47339 -3.2867,8.08648 -3.41028,9.25788 -1.29526,12.27749 2.99284,4.27288 10.01021,2.50292 18.7674,-4.7336 5.90361,-4.87846 8.39485,-5.75351 10.47056,-3.6778 1.42887,1.42887 1.40627,1.7544 -0.24879,3.58322 -1.00125,1.10637 -3.34538,2.29765 -5.20919,2.64731 -2.70989,0.50837 -3.16307,0.90764 -2.26223,1.99309 3.27856,3.95041 15.33378,2.41814 24.00882,-3.05163 2.94914,-1.85948 5.67871,-3.18518 6.06573,-2.946 0.38701,0.23919 0.31996,1.77275 -0.149,3.40792 -1.68314,5.86877 3.02366,4.83411 6.18326,-1.35923 2.01962,-3.95878 2.13058,-4.02468 2.96741,-1.76252 0.70563,1.90752 1.14078,2.12476 2.31089,1.15365 1.1216,-0.93084 2.22916,-0.91159 4.99,0.0867 2.89197,1.04575 4.2098,1.04399 7.12331,-0.01 4.43233,-1.60275 5.47362,-0.84219 1.98051,1.44658 -1.96151,1.28523 -3.83494,1.57137 -7.46973,1.14088 -6.24936,-0.74014 -8.31979,1.29768 -10.61043,10.44329 -2.51414,10.03802 -6.49481,15.57863 -8.13036,11.31647 z m 5.62892,-10.42882 c 0.0474,-2.65895 -2.96972,2.65494 -3.49699,6.15916 l -0.49854,3.31335 1.98465,-4 c 1.09156,-2.2 1.99645,-4.66263 2.01088,-5.47251 z m -29.18545,-15.89248 c 0.29874,-0.89622 -0.22144,-0.89479 -2.1985,0.006 -1.42441,0.64901 -2.58983,1.54328 -2.58983,1.98727 0,1.18606 4.32928,-0.61613 4.78833,-1.99328 z m -26.73917,-9.07095 c 1.1587,-3.81477 1.92406,-7.97727 1.7008,-9.25 -0.36053,-2.05522 -0.6032,-1.87368 -2.1695,1.62294 -1.76238,3.93435 -3.40389,14.563 -2.24915,14.563 0.33612,0 1.55915,-3.12118 2.71785,-6.93594 z m -230.45618,19.08639 c -0.33401,-0.54044 -0.21996,-2.03288 0.25344,-3.31653 0.4734,-1.28366 1.16019,-3.57142 1.52621,-5.08392 l 0.66547,-2.75 -6.76905,-0.0997 C 102.54607,268.8455 98.375,268.48771 97,268.10524 c -7.189233,-1.99978 2.38201,-9.965 13.22853,-11.00884 l 6.19723,-0.5964 2.55482,-8.92257 c 1.40515,-4.90741 3.18106,-9.13131 3.94647,-9.38645 0.94075,-0.31358 1.1929,0.054 0.77825,1.13462 -0.33738,0.87918 -1.5895,5.16017 -2.78249,9.51332 l -2.16909,7.9148 4.18462,4.18462 c 2.30155,2.30155 4.88525,4.04446 5.74157,3.87314 1.05478,-0.21102 2.90824,-4.76504 5.74662,-14.11974 2.30433,-7.59454 4.61354,-13.75253 5.13158,-13.68442 1.22804,0.16145 0.96752,1.38293 -3.12079,14.63246 -1.89053,6.12689 -3.43732,11.41439 -3.43732,11.75 0,0.33562 2.1,0.61022 4.66667,0.61022 5.57946,0 4.9344,1.12006 -1.43979,2.5 -4.59711,0.99522 -4.62797,1.02985 -6.45881,7.25 -1.01179,3.4375 -2.27352,6.25 -2.80385,6.25 -0.53032,0 -0.97111,-2.1375 -0.97953,-4.75 -0.0209,-6.49701 -0.82724,-7.44172 -6.02971,-7.06487 l -4.3468,0.31487 -1.72856,5.84114 c -1.89982,6.41982 -2.38228,7.27259 -3.28664,5.80931 z m 3.46017,-15.2022 c 0.50392,-0.79654 0.92312,-2.46075 0.93154,-3.69825 0.0128,-1.88384 -0.51359,-2.24286 -3.23469,-2.20611 -3.84997,0.052 -9.64782,1.99984 -13.490919,4.53239 L 95.5,265.39449 98,266.14891 c 4.14491,1.2508 15.01666,0.43767 16.05315,-1.20066 z M 123,264.5567 c 0,-1.69024 -3.94192,-4.71063 -5.16297,-3.95598 -0.46037,0.28452 -0.83703,1.61576 -0.83703,2.9583 0,2.04553 0.48601,2.44098 3,2.44098 1.94762,0 3,-0.5063 3,-1.4433 z m 123.0042,14.87647 c -8.1202,-1.75989 -9.26621,-2.20022 -8.58692,-3.29932 0.30085,-0.4868 3.12292,-0.25089 6.31338,0.52776 8.97629,2.1907 21.26993,2.22325 24.56378,0.065 3.77743,-2.47506 3.56605,-5.98517 -0.54444,-9.04091 C 264.7294,265.44022 256.10999,262 253.50448,262 c -0.62658,0 -1.88918,2.3791 -2.80578,5.28688 -1.86635,5.92074 -4.61222,10.38369 -4.6669,7.58524 -0.0175,-0.89533 0.58331,-3.14533 1.33511,-5 2.8273,-6.97489 2.84927,-8.60105 0.12542,-9.28469 -3.48373,-0.87436 -3.10821,-2.39993 0.68283,-2.77407 2.95647,-0.29178 3.28802,-0.72235 4.81376,-6.25128 0.90122,-3.26585 2.1724,-6.11585 2.82484,-6.33333 1.52463,-0.50821 1.48465,0.21609 -0.3448,6.24737 -2.03158,6.6976 -1.6043,7.39103 4.20577,6.8255 7.46347,-0.72647 14.08932,-3.1862 16.36053,-6.07357 2.96172,-3.76522 2.36879,-9.85581 -1.21922,-12.52403 -3.92015,-2.9152 -15.80907,-3.52143 -23.23746,-1.18492 C 245.752,240.35179 237,246.995 237,249.58499 c 0,1.90428 4.31585,1.82016 8.14259,-0.15873 3.51472,-1.81753 5.29799,-0.95281 2.40203,1.16477 -3.10589,2.27108 -8.57278,3.46427 -10.68734,2.33259 -4.52198,-2.42009 -0.4726,-9.24855 8.24561,-13.90456 5.52945,-2.95304 7.56784,-3.47311 15.02863,-3.83439 4.99787,-0.24202 10.0929,0.0643 12.10295,0.7277 13.71974,4.52792 9.4797,21.3584 -5.96419,23.67435 -5.44842,0.81704 -6.073,1.83814 -2.12471,3.47358 5.14,2.12905 8.85443,5.82321 8.85443,8.80609 0,8.17904 -10.53979,11.13329 -26.9958,7.56678 z"
       id="path313" />
  </g>
</svg>
